<svg width="24" height="24" viewBox="0 0 24 24" fill="none" xmlns="http://www.w3.org/2000/svg">
<path d="M17.2 20.5H6.8C5 20.5 4.2 20.5 3.4 20.1C2.7 19.8 2.2 19.2 1.9 18.6C1.5 17.9 1.5 17 1.5 15.2V8.8C1.5 8.1 1.5 7.6 1.5 7.1C1.5 7 1.5 6.9 1.5 6.8C1.5 6.2 1.6 5.8 1.8 5.4C2.1 4.7 2.7 4.2 3.3 3.9C4.2 3.5 5 3.5 6.8 3.5H17.2C19 3.5 19.8 3.5 20.6 3.9C21.3 4.2 21.8 4.8 22.1 5.4C22.3 5.8 22.4 6.2 22.4 6.8C22.4 6.9 22.5 7 22.4 7.1C22.4 7.6 22.4 8.1 22.4 8.8V15.2C22.4 17 22.4 17.8 22 18.6C21.7 19.3 21.1 19.8 20.5 20.1C19.8 20.5 19 20.5 17.2 20.5ZM2.5 8C2.5 8.3 2.5 8.5 2.5 8.8V15.2C2.5 16.8 2.5 17.6 2.8 18.1C3 18.6 3.4 19 3.9 19.2C4.4 19.5 5.2 19.5 6.8 19.5H17.2C18.8 19.5 19.6 19.5 20.1 19.2C20.6 19 21 18.6 21.2 18.1C21.5 17.6 21.5 16.8 21.5 15.2V8.8C21.5 8.5 21.5 8.2 21.5 8L14.1 13.2C13.4 13.7 13 13.9 12.6 14.1C12.2 14.2 11.8 14.2 11.4 14.1C11 14 10.6 13.7 9.9 13.2L2.5 8ZM2.5 6.8L10.4 12.3C11 12.7 11.3 12.9 11.6 13C11.8 13.1 12.1 13.1 12.3 13C12.6 12.9 12.9 12.7 13.5 12.3L21.4 6.8C21.4 6.4 21.3 6.1 21.2 5.9C21 5.4 20.6 5 20.1 4.8C19.6 4.5 18.8 4.5 17.2 4.5H6.8C5.2 4.5 4.4 4.5 3.9 4.8C3.4 5 3 5.4 2.8 5.9C2.7 6.1 2.6 6.4 2.5 6.8Z" fill="#CBD2D9"/>
</svg>
