<svg width="24" height="24" viewBox="0 0 24 24" fill="none" xmlns="http://www.w3.org/2000/svg">
<path d="M12 13.5C10.1 13.5 8.5 11.9 8.5 10C8.5 8.1 10.1 6.5 12 6.5C13.9 6.5 15.5 8.1 15.5 10C15.5 11.9 13.9 13.5 12 13.5ZM12 7.5C10.6 7.5 9.5 8.6 9.5 10C9.5 11.4 10.6 12.5 12 12.5C13.4 12.5 14.5 11.4 14.5 10C14.5 8.6 13.4 7.5 12 7.5Z" fill="#CBD2D9"/>
<path d="M12 22.5C11.9 22.5 11.7 22.5 11.6 22.4L10.6 21.4C7 17.7 3.5 14.3 3.5 10C3.5 5.3 7.3 1.5 12 1.5C16.7 1.5 20.5 5.3 20.5 10C20.5 14.3 17 17.7 13.3 21.4L12.3 22.4C12.3 22.5 12.1 22.5 12 22.5ZM12 2.5C7.9 2.5 4.5 5.9 4.5 10C4.5 13.9 7.8 17.2 11.4 20.7L12 21.3L12.6 20.7C16.1 17.2 19.5 13.9 19.5 10C19.5 5.9 16.1 2.5 12 2.5Z" fill="#CBD2D9"/>
</svg>
