<svg width="24" height="24" viewBox="0 0 24 24" fill="none" xmlns="http://www.w3.org/2000/svg">
<path d="M6 21.5999C5.5 21.5999 5.1 21.3999 4.8 20.9999C4.5 20.5999 4.5 20.0999 4.5 18.9999V4.9999C4.5 3.8999 4.5 3.3999 4.8 2.9999C5.1 2.5999 5.5 2.3999 5.9 2.3999C6.4 2.3999 6.9 2.6999 7.8 3.2999L18.3 10.2999C19.1 10.7999 19.4 11.0999 19.6 11.4999C19.8 11.8999 19.8 12.2999 19.6 12.5999C19.4 12.9999 19 13.2999 18.3 13.7999L7.8 20.7999C6.9 21.2999 6.5 21.5999 6 21.5999ZM6 3.3999C5.8 3.3999 5.7 3.4999 5.6 3.5999C5.5 3.6999 5.5 4.2999 5.5 4.9999V18.9999C5.5 19.6999 5.5 20.2999 5.6 20.3999C5.7 20.4999 5.8 20.5999 6 20.5999C6.2 20.5999 6.7 20.2999 7.2 19.8999L17.7 12.8999C18.2 12.5999 18.6 12.2999 18.6 12.1999C18.7 12.0999 18.7 11.8999 18.6 11.7999C18.5 11.6999 18.2 11.3999 17.7 11.0999L7.2 4.0999C6.6 3.6999 6.2 3.3999 6 3.3999Z" fill="white"/>
</svg>
