<svg width="24" height="24" viewBox="0 0 24 24" fill="none" xmlns="http://www.w3.org/2000/svg">
<path d="M18 22.5C16.1 22.5 14.5 20.9 14.5 19C14.5 18.5 14.6 18.1 14.8 17.7L8.8 14.2C8.1 15 7.1 15.5 6 15.5C4.1 15.5 2.5 13.9 2.5 12C2.5 10.1 4.1 8.5 6 8.5C7.1 8.5 8.1 9 8.7 9.8L14.7 6.3C14.5 5.9 14.4 5.5 14.4 5C14.4 3.1 16 1.5 17.9 1.5C19.8 1.5 21.4 3.1 21.4 5C21.4 6.9 19.9 8.5 18 8.5C16.9 8.5 15.9 8 15.3 7.2L9.3 10.7C9.5 11.1 9.6 11.5 9.6 12C9.6 12.5 9.5 12.9 9.3 13.3L15.3 16.8C15.9 16 16.9 15.5 18 15.5C19.9 15.5 21.5 17.1 21.5 19C21.5 20.9 19.9 22.5 18 22.5ZM15.8 17.8C15.6 18.2 15.5 18.6 15.5 19C15.5 20.4 16.6 21.5 18 21.5C19.4 21.5 20.5 20.4 20.5 19C20.5 17.6 19.4 16.5 18 16.5C17.1 16.5 16.3 17 15.9 17.7C15.9 17.7 15.9 17.7 15.8 17.8ZM6 9.5C4.6 9.5 3.5 10.6 3.5 12C3.5 13.4 4.6 14.5 6 14.5C6.9 14.5 7.7 14 8.1 13.3C8.3 12.9 8.4 12.5 8.4 12.1C8.4 11.7 8.3 11.2 8.1 10.9C7.7 10 6.9 9.5 6 9.5ZM15.9 6.3C16.3 7 17.1 7.5 18 7.5C19.4 7.5 20.5 6.4 20.5 5C20.5 3.6 19.4 2.5 18 2.5C16.6 2.5 15.5 3.6 15.5 5C15.5 5.4 15.6 5.9 15.9 6.3C15.8 6.2 15.8 6.2 15.9 6.3Z" fill="white"/>
</svg>
