<svg width="24" height="24" viewBox="0 0 24 24" fill="none" xmlns="http://www.w3.org/2000/svg">
<path d="M17.6004 21.7C17.1004 21.7 16.8004 21.6 16.2004 21.4C13.0004 20.5 10.1004 18.8 7.70039 16.4C5.30039 14 3.60039 11.1 2.70039 7.89995C2.50039 7.29995 2.40039 6.99995 2.40039 6.49995C2.40039 5.99995 2.60039 5.19995 2.80039 4.79995C3.10039 4.39995 3.40039 4.09995 4.00039 3.49995L4.20039 3.29995C4.80039 2.69995 5.10039 2.39995 5.40039 2.29995C6.00039 1.99995 6.90039 1.99995 7.60039 2.29995C8.00039 2.49995 8.20039 2.79995 8.80039 3.29995L9.00039 3.59995C9.40039 3.99995 9.60039 4.19995 9.70039 4.39995C10.2004 5.19995 10.2004 6.29995 9.70039 7.09995C9.50039 7.29995 9.40039 7.49995 9.00039 7.79995C8.90039 7.89995 8.90039 7.99995 8.80039 7.99995C8.70039 8.09995 8.70039 8.29995 8.70039 8.39995C8.70039 8.49995 8.70039 8.49995 8.80039 8.59995C9.50039 9.99995 10.4004 11.3 11.5004 12.5C12.6004 13.6 13.9004 14.6 15.4004 15.2C15.5004 15.2 15.5004 15.3 15.6004 15.3C15.7004 15.3 15.9004 15.3 16.0004 15.2C16.0004 15.2 16.1004 15.1 16.2004 15C16.6004 14.6 16.8004 14.4 17.0004 14.3C17.8004 13.8 18.9004 13.8 19.7004 14.3C19.9004 14.4 20.1004 14.6 20.5004 15L20.7004 15.2C21.3004 15.8 21.6004 16.1 21.7004 16.4C22.1004 17.1 22.1004 17.9 21.7004 18.7C21.5004 19.1 21.2004 19.3 20.7004 19.9L20.5004 20.1C20.0004 20.6 19.7004 20.9 19.2004 21.2C18.8004 21.5 18.1004 21.7 17.6004 21.7ZM6.50039 3.09995C6.20039 3.09995 6.00039 3.09995 5.80039 3.19995C5.60039 3.29995 5.30039 3.59995 4.80039 3.99995L4.70039 4.19995C4.20039 4.69995 3.90039 4.99995 3.70039 5.29995C3.60039 5.59995 3.40039 6.09995 3.40039 6.49995C3.40039 6.79995 3.50039 7.09995 3.60039 7.59995C4.50039 10.6 6.10039 13.4 8.30039 15.7C10.5004 17.9 13.3004 19.6 16.4004 20.4C17.0004 20.6 17.2004 20.6 17.5004 20.6C17.9004 20.6 18.4004 20.4999 18.7004 20.2999C19.0004 20.0999 19.2004 19.9 19.7004 19.4L19.9004 19.2C20.4004 18.7 20.6004 18.5 20.7004 18.2C20.9004 17.8 20.9004 17.3 20.7004 16.8C20.6004 16.6 20.3004 16.3 19.9004 15.8L19.7004 15.6C19.4004 15.3 19.2004 15.1 19.1004 15C18.6004 14.7 18.0004 14.7 17.5004 15C17.4004 15.1 17.2004 15.3 16.9004 15.6C16.8004 15.7 16.7004 15.8 16.6004 15.9C16.2004 16.2 15.7004 16.2 15.3004 16.1C15.2004 16.1 15.1004 16 15.0004 16C13.5004 15.3 12.1004 14.3 10.8004 13C9.70039 12 8.70039 10.6 7.90039 9.09995C7.90039 8.89995 7.80039 8.79995 7.80039 8.69995C7.70039 8.29995 7.80039 7.79995 8.00039 7.39995C8.10039 7.29995 8.10039 7.19995 8.30039 7.09995C8.60039 6.79995 8.80039 6.59995 8.90039 6.49995C9.20039 5.99995 9.20039 5.39995 8.90039 4.89995C8.80039 4.69995 8.60039 4.59995 8.30039 4.29995L8.10039 4.09995C7.60039 3.59995 7.40039 3.39995 7.10039 3.29995C6.90039 3.09995 6.70039 3.09995 6.50039 3.09995Z" fill="#CBD2D9"/>
</svg>
