<svg width="24" height="24" viewBox="0 0 24 24" fill="none" xmlns="http://www.w3.org/2000/svg">
<path d="M12.5003 22.5C10.9003 22.5 9.50028 21.2 9.50028 19.5V16.6C9.50028 16.2 9.50028 15.9 9.40028 15.8C9.40028 15.7 9.30028 15.6 9.20028 15.6C9.10028 15.5 8.80028 15.5 8.40028 15.5H7.60028C5.60028 15.5 4.60028 15.5 3.80028 15C3.10028 14.6 2.50028 14 2.30028 13.2C2.00028 12.3 2.10028 11.3 2.40028 9.3L2.90028 6C3.10028 4.5 3.20028 3.7 3.70028 3.1C4.10028 2.5 4.60028 2.1 5.20028 1.8C5.90028 1.5 6.70028 1.5 8.20028 1.5H18.9003C20.1003 1.5 20.7003 1.5 21.2003 1.8C21.6003 2 22.0003 2.4 22.2003 2.9C22.5003 3.4 22.5003 4 22.5003 5.2V9.8C22.5003 11 22.5003 11.6 22.2003 12.1C22.0003 12.6 21.6003 13 21.1003 13.2C20.6003 13.5 20.0003 13.5 18.8003 13.5H18.0003C17.7003 13.5 17.5003 13.5 17.4003 13.5C17.3003 13.5 17.3003 13.6 17.2003 13.6C17.1003 13.7 17.1003 13.8 16.9003 14.1L13.5003 21.7C13.5003 22.2 13.0003 22.5 12.5003 22.5ZM8.10028 2.5C6.70028 2.5 6.00028 2.5 5.50028 2.7C5.10028 2.9 4.70028 3.2 4.50028 3.6C4.20028 4.1 4.10028 4.8 3.90028 6.1L3.30028 9.5C3.00028 11.3 2.90028 12.2 3.10028 12.8C3.30028 13.3 3.70028 13.8 4.20028 14.1C4.80028 14.4 5.70028 14.4 7.50028 14.4H8.30028C8.90028 14.4 9.30028 14.4 9.60028 14.6C9.90028 14.7 10.1003 15 10.3003 15.3C10.5003 15.6 10.5003 16 10.5003 16.6V19.5C10.5003 20.6 11.4003 21.5 12.5003 21.5C12.6003 21.5 12.7003 21.4 12.8003 21.3L16.2003 13.7C16.3003 13.4 16.4003 13.2 16.6003 13V2.5H8.10028ZM17.5003 2.5V12.5C17.6003 12.5 17.8003 12.5 18.0003 12.5H18.8003C19.8003 12.5 20.4003 12.5 20.7003 12.3C21.0003 12.2 21.2003 11.9 21.4003 11.6C21.6003 11.3 21.6003 10.8 21.6003 9.7V5.2C21.6003 4.2 21.6003 3.6 21.4003 3.3C21.2003 3 21.0003 2.8 20.7003 2.7C20.4003 2.5 19.9003 2.5 18.8003 2.5H17.5003Z" fill="white"/>
</svg>
