<svg width="24" height="24" viewBox="0 0 24 24" fill="none" xmlns="http://www.w3.org/2000/svg">
<path d="M17.4 22.5H4C2.6 22.5 1.5 21.4 1.5 20V13C1.5 11.6 2.6 10.5 4 10.5H6.4C6.6 10.5 6.8 10.4 6.9 10.2L10.4 2.3C10.6 1.8 11.1 1.5 11.6 1.5C13.2 1.5 14.6 2.8 14.6 4.5V8C14.6 8.3 14.8 8.5 15.1 8.5H18.6C19.6 8.5 20.6 8.9 21.3 9.7C22 10.5 22.3 11.5 22.1 12.5L21 19.5C20.6 21.3 19.2 22.5 17.4 22.5ZM7.5 21.5H17.4C18.6 21.5 19.7 20.6 19.9 19.4L21 12.4C21.1 11.7 20.9 10.9 20.4 10.4C19.9 9.9 19.2 9.5 18.5 9.5H15C14.2 9.5 13.5 8.8 13.5 8V4.5C13.5 3.4 12.6 2.5 11.5 2.5C11.4 2.5 11.3 2.6 11.2 2.7L7.7 10.6C7.6 10.7 7.6 10.8 7.5 11V21.5ZM4 11.5C3.2 11.5 2.5 12.2 2.5 13V20C2.5 20.8 3.2 21.5 4 21.5H6.5V11.5H4Z" fill="white"/>
</svg>
