<svg width="24" height="24" viewBox="0 0 24 24" fill="none" xmlns="http://www.w3.org/2000/svg">
<path d="M11.9997 21.5C11.6997 21.5 11.4997 21.3 11.4997 21V13.2L8.39967 16.3C8.19967 16.5 7.89967 16.5 7.69967 16.3C7.49967 16.1 7.49967 15.8 7.69967 15.6L11.6997 11.6C11.6997 11.6 11.7997 11.5 11.8997 11.5C11.9997 11.5 11.9997 11.5 12.0997 11.5C12.1997 11.5 12.1997 11.5 12.2997 11.5C12.3997 11.5 12.3997 11.6 12.4997 11.6L16.4997 15.6C16.6997 15.8 16.6997 16.1 16.4997 16.3C16.2997 16.5 15.9997 16.5 15.7997 16.3L12.6997 13.2V21C12.4997 21.3 12.2997 21.5 11.9997 21.5ZM19.9997 16.7C19.7997 16.7 19.6997 16.6 19.5997 16.5C19.3997 16.3 19.4997 16 19.6997 15.8C20.7997 15.1 21.4997 13.8 21.4997 12.5C21.4997 10.4 19.8997 8.7 17.8997 8.5C17.6997 8.5 17.4997 8.3 17.4997 8.1C16.9997 5.4 14.6997 3.5 11.9997 3.5C9.29967 3.5 6.99967 5.4 6.59967 8.1C6.59967 8.3 6.39967 8.5 6.19967 8.5C4.09967 8.7 2.59967 10.4 2.59967 12.5C2.59967 13.8 3.29967 15.1 4.39967 15.8C4.59967 16 4.69967 16.3 4.49967 16.5C4.29967 16.7 3.99967 16.8 3.79967 16.6C2.39967 15.7 1.59967 14.1 1.59967 12.4C1.49967 10 3.29967 8 5.69967 7.6C6.39967 4.6 8.99967 2.5 11.9997 2.5C14.9997 2.5 17.6997 4.6 18.2997 7.6C20.6997 8 22.4997 10.1 22.4997 12.5C22.4997 14.2 21.6997 15.7 20.2997 16.7C20.1997 16.7 20.0997 16.7 19.9997 16.7Z" fill="white"/>
</svg>
