<svg width="24" height="24" viewBox="0 0 24 24" fill="none" xmlns="http://www.w3.org/2000/svg">
<path fill-rule="evenodd" clip-rule="evenodd" d="M19.4992 18.3999C19.4992 18.4999 19.3992 18.4999 19.4992 18.3999C19.3992 18.5999 19.2992 18.5999 19.2992 18.6999L19.1992 18.7999C19.1992 18.7999 19.1992 18.7999 19.1992 18.8999L18.9992 18.9999L18.8992 19.0999C18.8992 19.0999 18.8992 19.0999 18.7992 19.0999C18.6992 19.0999 18.7992 19.0999 18.7992 19.1999L18.6992 19.2999C18.6992 19.2999 18.5992 19.2999 18.5992 19.3999C18.5992 19.3999 18.4992 19.3999 18.4992 19.4999C18.3992 19.5999 18.3992 19.5999 18.2992 19.6999C18.2992 19.6999 18.1992 19.6999 18.1992 19.7999C18.1992 19.7999 18.0992 19.7999 18.0992 19.8999C18.0992 19.9999 17.9992 19.8999 17.9992 19.9999C17.9992 19.9999 17.8992 19.9999 17.8992 20.0999C17.8992 20.0999 17.7992 20.0999 17.7992 20.1999C17.7992 20.2999 17.6992 20.1999 17.6992 20.2999C17.6992 20.2999 17.5992 20.3999 17.4992 20.3999C17.4992 20.3999 17.3992 20.3999 17.3992 20.4999C17.3992 20.4999 17.2992 20.4999 17.2992 20.5999C17.1992 20.5999 17.1992 20.6999 17.0992 20.6999C17.0992 20.6999 16.9992 20.6999 16.9992 20.7999H16.8992C16.8992 20.7999 16.7992 20.7999 16.7992 20.8999C16.7992 20.8999 16.6992 20.8999 16.6992 20.9999H16.4992C16.3992 20.9999 16.3992 21.0999 16.2992 21.0999H15.8992C15.7992 21.0999 15.7992 21.1999 15.6992 21.1999C15.5992 21.1999 15.4992 21.2999 15.4992 21.2999L14.6992 21.6999H14.4992C14.3992 21.6999 14.2992 21.6999 14.2992 21.6999H13.4992C13.3992 21.6999 13.2992 21.6999 13.2992 21.6999C13.1992 21.6999 13.0992 21.6999 12.9992 21.6999H11.8992C6.79922 21.3999 2.69922 17.0999 2.69922 11.8999V3.29991C2.69922 2.49991 3.49922 1.99991 4.29922 2.29991C4.99922 2.69991 6.79922 3.99991 6.79922 3.99991L7.19922 3.69991C7.19922 3.69991 7.29922 3.59991 7.39922 3.59991H6.99922C6.99922 3.59991 6.99922 3.59991 7.09922 3.59991L7.29922 3.39991H7.49922L7.59922 3.29991H7.79922L7.99922 3.09991H8.19922C8.29922 3.09991 8.29922 3.09991 8.39922 2.99991H8.59922C8.59922 2.99991 8.69922 2.99991 8.79922 2.99991H9.19922C9.29922 2.99991 9.29922 2.99991 9.29922 2.99991H10.2992C10.2992 2.99991 10.3992 2.99991 10.4992 2.99991H10.6992C10.6992 2.99991 10.6992 2.99991 10.7992 2.99991H11.0992C11.0992 2.99991 11.0992 2.99991 11.1992 2.99991H11.2992C11.3992 2.99991 11.3992 2.99991 11.4992 2.99991C11.5992 2.99991 11.5992 2.99991 11.6992 2.99991H12.5992C12.6992 2.99991 12.6992 2.99991 12.7992 2.99991C12.8992 2.99991 12.8992 2.99991 12.9992 2.99991H13.0992C13.2992 2.99991 13.3992 2.99991 13.5992 2.99991C18.3992 3.69991 22.0992 7.79991 22.0992 12.6999C22.0992 12.8999 22.0992 12.9999 22.0992 13.1999C22.0992 13.1999 22.0992 13.2999 22.0992 13.3999C22.0992 13.4999 22.0992 13.4999 22.0992 13.5999C22.0992 13.6999 22.0992 13.6999 22.0992 13.7999C22.0992 13.7999 22.0992 13.7999 22.0992 13.8999V14.7999L21.9992 15.0999L21.8992 15.2999L21.3992 14.9999L21.2992 15.1999C21.2992 15.2999 21.1992 15.2999 21.1992 15.3999L21.0992 15.5999V15.9999C21.0992 16.0999 21.0992 16.1999 20.9992 16.1999L20.8992 16.2999C20.8992 16.2999 20.8992 16.3999 20.7992 16.3999C20.7992 16.3999 20.7992 16.4999 20.6992 16.4999C20.6992 16.4999 20.6992 16.5999 20.5992 16.5999C20.5992 16.5999 20.5992 16.6999 20.4992 16.6999C20.4992 16.6999 20.4992 16.7999 20.3992 16.7999C20.3992 16.7999 20.3992 16.8999 20.2992 16.8999C20.2992 16.8999 20.2992 16.9999 20.1992 16.9999C20.0992 16.9999 20.1992 17.0999 20.0992 17.0999L19.9992 17.2999C19.9992 17.2999 19.9992 17.3999 19.8992 17.3999C19.8992 17.3999 19.8992 17.4999 19.7992 17.4999C19.7992 17.4999 19.6992 17.5999 19.6992 17.6999C19.6992 17.6999 19.6992 17.7999 19.5992 17.7999C19.4992 17.7999 19.5992 17.8999 19.4992 17.8999C19.4992 17.8999 19.4992 17.9999 19.3992 17.9999C19.5992 18.2999 19.5992 18.2999 19.4992 18.3999ZM9.29922 16.4999C9.69922 16.8999 10.1992 17.0999 10.6992 17.0999C11.1992 17.0999 11.6992 16.8999 11.9992 16.4999L17.6992 10.7999C18.3992 10.0999 18.3992 8.79991 17.6992 8.09991C16.9992 7.39991 15.6992 7.39991 14.9992 8.09991L10.6992 12.3999L8.99922 10.7999C8.29922 10.0999 6.99922 10.0999 6.29922 10.7999C5.59922 11.4999 5.59922 12.7999 6.29922 13.4999L9.29922 16.4999Z" fill="#7B8794"/>
</svg>
