<svg width="24" height="24" viewBox="0 0 24 24" fill="none" xmlns="http://www.w3.org/2000/svg">
<path fill-rule="evenodd" clip-rule="evenodd" d="M12 1.9999C9.3 1.9999 8.9 1.9999 7.9 2.0999C6.8 2.0999 6.1 2.2999 5.5 2.5999C4.8 2.7999 4.2 3.1999 3.7 3.6999C3.2 4.1999 2.8 4.7999 2.5 5.3999C2.3 6.0999 2.1 6.7999 2.1 7.8999C2 8.8999 2 9.2999 2 11.9999C2 14.6999 2 15.0999 2.1 16.0999C2.1 17.1999 2.3 17.8999 2.6 18.4999C2.9 19.1999 3.2 19.7999 3.8 20.2999C4.3 20.7999 4.9 21.1999 5.6 21.4999C6.2 21.6999 7 21.8999 8 21.9999C8.9 21.9999 9.3 21.9999 12 21.9999C14.7 21.9999 15.1 21.9999 16.1 21.8999C17.2 21.8999 17.9 21.6999 18.5 21.3999C19.2 21.0999 19.8 20.7999 20.3 20.1999C20.8 19.6999 21.2 19.0999 21.5 18.3999C21.7 17.7999 21.9 16.9999 22 15.9999C22 14.8999 22.1 14.5999 22.1 11.8999C22.1 9.1999 22.1 8.7999 22 7.7999C22 6.6999 21.8 5.9999 21.5 5.3999C21.2 4.6999 20.9 4.0999 20.3 3.5999C19.8 3.0999 19.2 2.6999 18.5 2.3999C17.9 2.1999 17.1 1.9999 16.1 1.8999C15.1 1.9999 14.7 1.9999 12 1.9999ZM12 3.7999C14.7 3.7999 15 3.7999 16 3.8999C17 3.8999 17.5 4.0999 17.9 4.1999C18.4 4.3999 18.7 4.5999 19 4.9999C19.4 5.2999 19.6 5.6999 19.7 6.1999C19.9 6.4999 20.1 6.9999 20.1 7.9999C20.1 9.0999 20.2 9.3999 20.2 11.9999C20.2 14.5999 20.2 14.9999 20.1 15.9999C20.1 16.9999 19.9 17.4999 19.8 17.8999C19.6 18.2999 19.4 18.6999 19.1 18.9999C18.8 19.2999 18.4 19.5999 18 19.6999C17.6 19.7999 17.1 19.9999 16.1 19.9999C15 19.9999 14.7 20.0999 12.1 20.0999C9.4 20.0999 9.1 20.0999 8.1 19.9999C7.1 19.9999 6.6 19.7999 6.2 19.6999C5.7 19.5999 5.3 19.3999 5 18.9999C4.7 18.6999 4.4 18.2999 4.3 17.8999C4.1 17.4999 3.9 16.9999 3.9 15.9999C3.9 14.8999 3.8 14.5999 3.8 11.9999C3.8 9.3999 3.8 8.9999 3.9 7.9999C3.9 6.9999 4.1 6.4999 4.2 6.0999C4.4 5.5999 4.6 5.2999 5 4.9999C5.3 4.6999 5.7 4.3999 6.2 4.2999C6.5 4.0999 7 3.8999 8 3.8999C9 3.7999 9.3 3.7999 12 3.7999ZM12 15.2999C11.6 15.2999 11.1 15.1999 10.7 14.9999C10.3 14.7999 9.9 14.5999 9.6 14.2999C9.3 13.9999 9 13.5999 8.9 13.1999C8.7 12.7999 8.6 12.3999 8.6 11.8999C8.6 11.3999 8.7 10.9999 8.9 10.5999C9.1 10.1999 9.3 9.7999 9.6 9.4999C9.9 9.1999 10.3 8.8999 10.7 8.7999C11.1 8.5999 11.5 8.4999 12 8.4999C12.9 8.4999 13.7 8.8999 14.4 9.4999C15 10.0999 15.4 10.9999 15.4 11.8999C15.4 12.7999 15 13.5999 14.4 14.2999C13.7 14.9999 12.9 15.2999 12 15.2999ZM12 6.8999C10.6 6.8999 9.3 7.3999 8.4 8.3999C7.4 9.3999 6.9 10.6999 6.9 11.9999C6.9 13.2999 7.4 14.6999 8.4 15.5999C9.4 16.5999 10.7 17.0999 12 17.0999C13.3 17.0999 14.7 16.5999 15.6 15.5999C16.6 14.5999 17.1 13.2999 17.1 11.9999C17.1 10.6999 16.6 9.2999 15.6 8.3999C14.7 7.3999 13.4 6.8999 12 6.8999ZM18.6 6.7999C18.6 7.0999 18.5 7.3999 18.2 7.6999C18.1 7.8999 17.7 7.9999 17.4 7.9999C17.1 7.9999 16.8 7.8999 16.5 7.5999C16.3 7.3999 16.1 7.0999 16.1 6.6999C16.1 6.3999 16.2 6.0999 16.5 5.7999C16.7 5.5999 17 5.3999 17.4 5.3999C17.7 5.3999 18 5.4999 18.3 5.7999C18.5 6.0999 18.6 6.3999 18.6 6.7999Z" fill="#7B8794"/>
</svg>
